<svg width="100" height="90" viewBox="0 0 100 90" fill="none" xmlns="http://www.w3.org/2000/svg">
<rect width="99.68" height="90.0023" rx="22" fill="#60DAFF"/>
<g clip-path="url(#clip0_2_79)">
<path d="M50 40.2148C54.6848 40.2148 58.4961 36.4035 58.4961 31.7188C58.4961 27.034 54.6848 23.2227 50 23.2227C45.3152 23.2227 41.5039 27.034 41.5039 31.7188C41.5039 36.4035 45.3152 40.2148 50 40.2148ZM50 26.1523C53.0693 26.1523 55.5664 28.6494 55.5664 31.7188C55.5664 34.7881 53.0693 37.2852 50 37.2852C46.9307 37.2852 44.4336 34.7881 44.4336 31.7188C44.4336 28.6494 46.9307 26.1523 50 26.1523Z" fill="white"/>
<path d="M67.1875 40.2148C70.1491 40.2148 72.5586 37.8054 72.5586 34.8438C72.5586 31.8821 70.1491 29.4727 67.1875 29.4727C64.2259 29.4727 61.8164 31.8821 61.8164 34.8438C61.8164 37.8054 64.2259 40.2148 67.1875 40.2148ZM67.1875 32.4023C68.5337 32.4023 69.6289 33.4976 69.6289 34.8438C69.6289 36.1899 68.5337 37.2852 67.1875 37.2852C65.8413 37.2852 64.7461 36.1899 64.7461 34.8438C64.7461 33.4976 65.8413 32.4023 67.1875 32.4023Z" fill="white"/>
<path d="M68.3691 43.5352H66.1035C63.4337 43.5352 61.129 45.1125 60.0788 47.3781C57.9166 45.0178 54.8108 43.5352 51.3651 43.5352H48.635C45.1893 43.5352 42.0835 45.0178 39.9213 47.3781C38.871 45.1125 36.5663 43.5352 33.8965 43.5352H31.6309C27.9746 43.5352 25 46.4918 25 50.126V60.791C25 62.3688 26.2885 63.6523 27.8723 63.6523H36.83C36.9802 65.4004 38.4501 66.7773 40.2365 66.7773H59.7636C61.5499 66.7773 63.0198 65.4004 63.1701 63.6523H72.0255C73.6657 63.6523 75.0001 62.3232 75.0001 60.6895V50.126C75 46.4918 72.0254 43.5352 68.3691 43.5352ZM27.9297 50.126C27.9297 48.1072 29.59 46.4648 31.6309 46.4648H33.8965C35.9373 46.4648 37.5977 48.1072 37.5977 50.126V51.129C36.6126 53.6938 36.8164 55.231 36.8164 60.7227H27.9297V50.126ZM60.2539 63.3573C60.2539 63.6277 60.034 63.8477 59.7636 63.8477H40.2364C39.966 63.8477 39.7461 63.6276 39.7461 63.3573V55.3537C39.7461 50.4523 43.7336 46.4648 48.6349 46.4648H51.365C56.2664 46.4648 60.2539 50.4523 60.2539 55.3536V63.3573ZM72.0703 60.6895C72.0703 60.7399 72.6164 60.7227 63.1836 60.7227C63.1836 55.1903 63.3858 53.6896 62.4023 51.129V50.126C62.4023 48.1072 64.0627 46.4648 66.1035 46.4648H68.3691C70.41 46.4648 72.0703 48.1072 72.0703 50.126V60.6895Z" fill="white"/>
<path d="M32.8125 40.2148C35.7741 40.2148 38.1836 37.8054 38.1836 34.8438C38.1836 31.8821 35.7741 29.4727 32.8125 29.4727C29.8509 29.4727 27.4414 31.8821 27.4414 34.8438C27.4414 37.8054 29.8509 40.2148 32.8125 40.2148ZM32.8125 32.4023C34.1587 32.4023 35.2539 33.4976 35.2539 34.8438C35.2539 36.1899 34.1587 37.2852 32.8125 37.2852C31.4663 37.2852 30.3711 36.1899 30.3711 34.8438C30.3711 33.4976 31.4663 32.4023 32.8125 32.4023Z" fill="white"/>
</g>
<defs>
<clipPath id="clip0_2_79">
<rect width="50" height="50" fill="white" transform="translate(25 20)"/>
</clipPath>
</defs>
</svg>
