<svg width="46" height="47" viewBox="0 0 46 47" fill="none" xmlns="http://www.w3.org/2000/svg">
<g clip-path="url(#clip0_2_149)">
<path d="M18.0655 3.70493H7.27639C5.23765 3.70493 3.57999 5.36259 3.57999 7.40133V18.1904C3.57999 20.2291 5.23765 21.8868 7.27639 21.8868H18.0655C20.1041 21.8868 21.7619 20.2292 21.7619 18.1904V7.40133C21.7618 5.36259 20.1041 3.70493 18.0655 3.70493ZM19.7636 18.1904C19.7636 19.1264 19.0015 19.8886 18.0655 19.8886H7.27639C6.34037 19.8886 5.57823 19.1264 5.57823 18.1904V7.40133C5.57823 6.46531 6.34037 5.70317 7.27639 5.70317H18.0655C19.0015 5.70317 19.7636 6.46531 19.7636 7.40133V18.1904Z" fill="#3D3D3F" stroke="#3D3D3F" stroke-width="0.2"/>
<path d="M39.2255 3.70493H28.4364C26.3977 3.70493 24.74 5.36259 24.74 7.40133V18.1904C24.74 20.2291 26.3977 21.8868 28.4364 21.8868H39.2255C41.2641 21.8868 42.9219 20.2292 42.9219 18.1904V7.40133C42.9218 5.36259 41.2641 3.70493 39.2255 3.70493ZM40.9236 18.1904C40.9236 19.1264 40.1615 19.8886 39.2255 19.8886H28.4364C27.5004 19.8886 26.7382 19.1264 26.7382 18.1904V7.40133C26.7382 6.46531 27.5004 5.70317 28.4364 5.70317H39.2255C40.1615 5.70317 40.9236 6.46531 40.9236 7.40133V18.1904Z" fill="#3D3D3F" stroke="#3D3D3F" stroke-width="0.2"/>
<path d="M18.0655 25.2832H7.27639C5.23765 25.2832 3.57999 26.9408 3.57999 28.9796V39.7687C3.57999 41.8073 5.23765 43.4651 7.27639 43.4651H18.0655C20.1041 43.4651 21.7619 41.8074 21.7619 39.7687V28.9796C21.7618 26.9408 20.1041 25.2832 18.0655 25.2832ZM19.7636 39.7687C19.7636 40.7047 19.0015 41.4668 18.0655 41.4668H7.27639C6.34037 41.4668 5.57823 40.7047 5.57823 39.7687V28.9796C5.57823 28.0436 6.34037 27.2814 7.27639 27.2814H18.0655C19.0015 27.2814 19.7636 28.0436 19.7636 28.9796V39.7687Z" fill="#3D3D3F" stroke="#3D3D3F" stroke-width="0.2"/>
<path d="M39.2255 25.2832H28.4364C26.3977 25.2832 24.74 26.9408 24.74 28.9796V39.7687C24.74 41.8073 26.3977 43.4651 28.4364 43.4651H39.2255C41.2641 43.4651 42.9219 41.8074 42.9219 39.7687V28.9796C42.9218 26.9408 41.2641 25.2832 39.2255 25.2832ZM40.9236 39.7687C40.9236 40.7047 40.1615 41.4668 39.2255 41.4668H28.4364C27.5004 41.4668 26.7382 40.7047 26.7382 39.7687V28.9796C26.7382 28.0436 27.5004 27.2814 28.4364 27.2814H39.2255C40.1615 27.2814 40.9236 28.0436 40.9236 28.9796V39.7687Z" fill="#3D3D3F" stroke="#3D3D3F" stroke-width="0.2"/>
</g>
<defs>
<clipPath id="clip0_2_149">
<rect x="3.67999" y="3.80493" width="39.56" height="39.56" rx="3" fill="white"/>
</clipPath>
</defs>
</svg>
