<svg width="50" height="51" viewBox="0 0 50 51" fill="none" xmlns="http://www.w3.org/2000/svg">
<g clip-path="url(#clip0_2_116)">
<path d="M43.6691 6.62706H43.0759C44.2067 4.78599 43.7891 2.31426 41.9742 0.967702C40.0187 -0.48305 37.2397 -0.0160675 35.875 2.02335L32.7944 6.62716H6.33038C4.15513 6.62716 2.38544 8.39685 2.38544 10.5721V35.7937C2.38544 37.9689 4.15513 39.7386 6.33038 39.7386H21.6537L20.4959 44.6015H17.997C16.3685 44.6015 15.0435 45.9264 15.0435 47.555V48.1717H11.963C11.4236 48.1717 10.9864 48.609 10.9864 49.1482C10.9864 49.6874 11.4236 50.1247 11.963 50.1247H38.0366C38.5759 50.1247 39.0131 49.6874 39.0131 49.1482C39.0131 48.609 38.5759 48.1717 38.0366 48.1717H34.9561V47.555C34.9561 45.9264 33.6311 44.6015 32.0025 44.6015H29.5037L28.3459 39.7386H43.6692C45.8445 39.7386 47.6141 37.9689 47.6141 35.7937V30.244V10.572C47.6141 8.39676 45.8445 6.62706 43.6691 6.62706ZM29.677 23.7946C28.1502 24.8634 25.2898 23.4106 22.5582 24.8682C21.8917 21.4059 22.3119 18.1496 25.7811 17.4309C26.2294 17.3374 26.7121 17.2951 27.123 17.3033C28.2972 18.1745 29.4849 19.0556 30.6558 19.9245C31.1684 21.4154 30.976 22.8853 29.677 23.7946ZM30.6612 13.3272L33.4255 15.3782L31.2996 17.97C30.4244 17.3207 29.6721 16.7625 28.7969 16.1131C28.9787 15.8415 30.495 13.5754 30.6612 13.3272ZM37.4983 3.10955C38.238 2.00401 39.7464 1.74679 40.8105 2.53632C41.8749 3.32596 42.0655 4.84409 41.2221 5.87249C39.7255 7.69696 36.1676 12.0349 34.6654 13.8664L31.7484 11.7022L37.4983 3.10955ZM33.0029 47.555V48.1717H16.9966V47.555C16.9966 47.0034 17.4454 46.5546 17.997 46.5546H32.0024C32.5541 46.5546 33.0029 47.0034 33.0029 47.555ZM27.4959 44.6015H22.5036L23.6614 39.7386H26.3381L27.4959 44.6015ZM45.6611 35.7937C45.6611 36.892 44.7675 37.7855 43.6692 37.7855C42.119 37.7855 8.07341 37.7855 6.33048 37.7855C5.23216 37.7855 4.33862 36.892 4.33862 35.7937V31.2205H7.12919C7.66854 31.2205 8.10574 30.7832 8.10574 30.244C8.10574 29.7047 7.66854 29.2674 7.12919 29.2674H4.33843V10.572C4.33843 9.47369 5.23196 8.58015 6.33028 8.58015H31.4875C30.552 9.97827 27.8226 14.0571 26.9581 15.349C25.0444 15.3662 23.1338 16.0329 21.883 17.4931C20.181 19.4798 19.882 22.6017 20.9943 26.7717C21.1844 27.4848 22.0741 27.7402 22.6125 27.226C25.1375 24.8132 28.2824 27.445 31.0986 25.1656C32.8178 23.774 33.2246 21.5617 32.5764 19.493C33.4526 18.4247 40.6489 9.65103 41.5272 8.58015H43.669C44.7673 8.58015 45.6609 9.47369 45.6609 10.572V29.2673H14.9413C14.402 29.2673 13.9648 29.7046 13.9648 30.2439C13.9648 30.7831 14.402 31.2204 14.9413 31.2204H45.6611V35.7937Z" fill="#3D3D3F"/>
<path d="M10.8463 29.2863C10.3761 29.3824 10.0611 29.7888 10.0611 30.2444C10.0611 30.8553 10.6196 31.323 11.2281 31.2015C11.7688 31.0917 12.0982 30.5706 11.9947 30.053C11.886 29.5188 11.3678 29.1813 10.8463 29.2863Z" fill="#3D3D3F"/>
</g>
<defs>
<clipPath id="clip0_2_116">
<rect width="50" height="50" fill="white" transform="translate(0 0.124878)"/>
</clipPath>
</defs>
</svg>
