<svg width="50" height="51" viewBox="0 0 50 51" fill="none" xmlns="http://www.w3.org/2000/svg">
<g clip-path="url(#clip0_2_130)">
<path d="M45.6055 0.222534H4.39453C1.97139 0.222534 0 2.19392 0 4.61707V45.6327C0 48.0558 1.97139 50.0272 4.39453 50.0272H45.6055C48.0286 50.0272 50 48.0558 50 45.6327V4.61707C50 2.19392 48.0286 0.222534 45.6055 0.222534ZM4.39453 3.15222H45.6055C46.4132 3.15222 47.0703 3.80935 47.0703 4.61707V11.9413H2.92969V4.61707C2.92969 3.80935 3.58682 3.15222 4.39453 3.15222ZM45.6055 47.0975H4.39453C3.58682 47.0975 2.92969 46.4404 2.92969 45.6327V14.871H47.0703V45.6327C47.0703 46.4404 46.4132 47.0975 45.6055 47.0975Z" fill="white"/>
<path d="M29.9716 19.3839C29.2281 19.0653 28.3669 19.4097 28.0482 20.1533L19.2591 40.6611C18.9404 41.4046 19.2849 42.2659 20.0285 42.5845C20.7723 42.9033 21.6334 42.5585 21.9519 41.8152L30.741 21.3074C31.0597 20.5637 30.7152 19.7026 29.9716 19.3839Z" fill="white"/>
<path d="M17.3547 24.2097C16.8492 23.578 15.9272 23.4756 15.2958 23.981L7.97156 29.8403C7.23924 30.426 7.23875 31.5419 7.97156 32.128L15.2958 37.9874C15.9275 38.4929 16.8495 38.3903 17.3547 37.7587C17.86 37.127 17.7577 36.2051 17.1259 35.6998L11.2315 30.9842L17.1259 26.2687C17.7577 25.7633 17.86 24.8415 17.3547 24.2097Z" fill="white"/>
<path d="M42.0286 29.8404L34.7043 23.981C34.0726 23.4756 33.1507 23.578 32.6455 24.2097C32.1401 24.8415 32.2424 25.7633 32.8743 26.2686L38.7686 30.9842L32.8743 35.6998C32.2424 36.2051 32.1401 37.1269 32.6455 37.7587C33.1515 38.3911 34.0735 38.4923 34.7043 37.9874L42.0286 32.128C42.7609 31.5423 42.7614 30.4265 42.0286 29.8404Z" fill="white"/>
<path d="M7.42188 9.0116C8.23089 9.0116 8.88672 8.35576 8.88672 7.54675C8.88672 6.73774 8.23089 6.08191 7.42188 6.08191C6.61286 6.08191 5.95703 6.73774 5.95703 7.54675C5.95703 8.35576 6.61286 9.0116 7.42188 9.0116Z" fill="white"/>
<path d="M13.2812 9.0116C14.0903 9.0116 14.7461 8.35576 14.7461 7.54675C14.7461 6.73774 14.0903 6.08191 13.2812 6.08191C12.4722 6.08191 11.8164 6.73774 11.8164 7.54675C11.8164 8.35576 12.4722 9.0116 13.2812 9.0116Z" fill="white"/>
<path d="M19.1406 9.0116C19.9496 9.0116 20.6055 8.35576 20.6055 7.54675C20.6055 6.73774 19.9496 6.08191 19.1406 6.08191C18.3316 6.08191 17.6758 6.73774 17.6758 7.54675C17.6758 8.35576 18.3316 9.0116 19.1406 9.0116Z" fill="white"/>
<path d="M33.7891 9.0116H42.5781C43.3871 9.0116 44.043 8.35574 44.043 7.54675C44.043 6.73777 43.3871 6.08191 42.5781 6.08191H33.7891C32.9801 6.08191 32.3242 6.73777 32.3242 7.54675C32.3242 8.35574 32.9801 9.0116 33.7891 9.0116Z" fill="white"/>
</g>
<defs>
<clipPath id="clip0_2_130">
<rect width="50" height="50" fill="white" transform="translate(0 0.124878)"/>
</clipPath>
</defs>
</svg>
