<svg width="100" height="90" viewBox="0 0 100 90" fill="none" xmlns="http://www.w3.org/2000/svg">
<rect width="99.68" height="90.0023" rx="22" fill="#F37168"/>
<path d="M54.7538 56.2146C54.9161 55.837 55.0064 55.4212 55.0064 54.9848C55.0064 53.2615 53.6043 51.8593 51.8809 51.8593H50.5504H47.4013L48.8937 49.3488C49.3329 48.6099 49.4446 47.7135 49.2003 46.8894C48.9559 46.0654 48.3734 45.3749 47.6026 44.9951C46.7351 44.5675 45.702 44.5732 44.8391 45.0099C42.3665 46.2618 40.1165 47.973 38.2371 50.0158C38.0699 49.7175 37.7513 49.5156 37.3851 49.5156H28.7913C28.2521 49.5156 27.8148 49.9529 27.8148 50.4921V55.8632C27.8148 56.4025 28.2521 56.8398 28.7913 56.8398C29.3306 56.8398 29.7679 56.4025 29.7679 55.8632V51.4687H36.4085V69.0468H29.7679V64.6523C29.7679 64.113 29.3306 63.6757 28.7913 63.6757C28.2521 63.6757 27.8148 64.113 27.8148 64.6523V70.0234C27.8148 70.5626 28.2521 70.9999 28.7913 70.9999H37.3851C37.9243 70.9999 38.3616 70.5626 38.3616 70.0234V69.9883C39.5232 70.6416 40.8462 70.9999 42.1898 70.9999H51.2034C52.9258 70.9999 54.3269 69.5987 54.3269 67.8764C54.3269 67.4626 54.2453 67.0678 54.0985 66.7061H54.1594C55.8828 66.7061 57.285 65.3041 57.285 63.5806C57.285 62.7487 56.9576 61.9923 56.4258 61.4317C56.9576 60.871 57.285 60.1146 57.285 59.2827C57.2849 57.7625 56.1939 56.493 54.7538 56.2146ZM54.1593 64.7529H47.7871C47.2479 64.7529 46.8106 65.1902 46.8106 65.7294C46.8106 66.2687 47.2479 66.706 47.7871 66.706H51.2032C51.8485 66.706 52.3735 67.231 52.3735 67.8763C52.3735 68.5216 51.8486 69.0468 51.2033 69.0468H42.1897C40.7886 69.0468 39.4169 68.5283 38.3615 67.6144V52.9095L38.4282 52.822C40.3587 50.2894 42.8806 48.1907 45.7214 46.7525C46.0391 46.5915 46.4194 46.5894 46.7393 46.747C47.0275 46.8889 47.2364 47.1368 47.3277 47.4448C47.4192 47.7528 47.3789 48.0745 47.2149 48.3506L44.8452 52.3369C44.6657 52.6386 44.6622 53.0135 44.8358 53.3187C45.0094 53.624 45.3335 53.8124 45.6846 53.8124H51.8808C52.5272 53.8124 53.0531 54.3384 53.0531 54.9848C53.0531 55.6312 52.5272 56.1572 51.8808 56.1572H47.7871C47.2479 56.1572 46.8106 56.5945 46.8106 57.1337C46.8106 57.673 47.2479 58.1103 47.7871 58.1103H54.1593C54.8058 58.1103 55.3317 58.6363 55.3317 59.2827C55.3317 59.9291 54.8058 60.4551 54.1593 60.4551H47.7871C47.2479 60.4551 46.8106 60.8924 46.8106 61.4317C46.8106 61.9709 47.2479 62.4082 47.7871 62.4082H54.1593C54.8058 62.4082 55.3317 62.9342 55.3317 63.5806C55.3317 64.227 54.8059 64.7529 54.1593 64.7529Z" fill="white"/>
<path d="M59.7544 33.0836L55.5645 32.4749L53.6907 28.678C53.5261 28.3447 53.1867 28.1337 52.8149 28.1337C52.4431 28.1337 52.1037 28.3447 51.9391 28.678L50.0653 32.4749L45.8753 33.0836C45.5074 33.1371 45.2019 33.3948 45.087 33.7483C44.9721 34.1018 45.0679 34.4899 45.334 34.7494L48.366 37.7048L47.6502 41.8778C47.5874 42.2442 47.738 42.6144 48.0388 42.8329C48.3396 43.0513 48.7383 43.0801 49.0672 42.9073L52.8149 40.937L56.5625 42.9073C56.7054 42.9825 56.8615 43.0194 57.0168 43.0194C57.2193 43.0194 57.4208 42.9564 57.591 42.8329C57.8917 42.6144 58.0423 42.2442 57.9795 41.8778L57.2638 37.7048L60.2958 34.7494C60.562 34.4899 60.6577 34.1018 60.5428 33.7483C60.428 33.3948 60.1224 33.1371 59.7544 33.0836ZM55.5329 36.6644C55.3028 36.8888 55.1977 37.212 55.252 37.5289L55.7201 40.2577L53.2694 38.9693C53.1272 38.8945 52.971 38.8572 52.815 38.8572C52.6589 38.8572 52.5028 38.8946 52.3606 38.9693L49.9099 40.2577L50.378 37.5289C50.4323 37.2121 50.3272 36.8888 50.0971 36.6644L48.1145 34.7319L50.8543 34.3339C51.1725 34.2876 51.4474 34.0878 51.5897 33.7996L52.815 31.3168L54.0403 33.7996C54.1826 34.0878 54.4575 34.2876 54.7756 34.3339L57.5155 34.7319L55.5329 36.6644Z" fill="white"/>
<path d="M74.1373 35.4154C74.0224 35.0619 73.7168 34.8042 73.349 34.7507L70.1389 34.2844L68.7034 31.3754C68.5388 31.0421 68.1994 30.8311 67.8276 30.8311C67.4558 30.8311 67.1163 31.0421 66.9518 31.3754L65.5162 34.2844L62.3062 34.7507C61.9382 34.8042 61.6328 35.0619 61.5178 35.4154C61.403 35.7689 61.4988 36.157 61.7649 36.4165L64.0877 38.6808L63.5394 41.8778C63.4765 42.2442 63.6272 42.6145 63.928 42.8329C64.2288 43.0516 64.6275 43.0801 64.9564 42.9073L67.8276 41.3979L70.6988 42.9073C70.8416 42.9824 70.9977 43.0194 71.1531 43.0194C71.3555 43.0194 71.5571 42.9564 71.7272 42.8329C72.0279 42.6145 72.1786 42.2442 72.1158 41.8778L71.5674 38.6808L73.8903 36.4165C74.1564 36.157 74.2521 35.7689 74.1373 35.4154ZM69.8364 37.6404C69.6063 37.8648 69.5012 38.188 69.5555 38.5049L69.8562 40.2577L68.282 39.4301C68.1397 39.3553 67.9836 39.318 67.8276 39.318C67.6715 39.318 67.5155 39.3554 67.3732 39.4301L65.799 40.2577L66.0996 38.5049C66.1539 38.1881 66.0489 37.8648 65.8188 37.6404L64.5452 36.399L66.3051 36.1434C66.6233 36.0971 66.8982 35.8973 67.0405 35.6091L67.8276 34.0142L68.6147 35.6091C68.757 35.8973 69.0319 36.0971 69.35 36.1434L71.11 36.399L69.8364 37.6404Z" fill="white"/>
<path d="M34.0618 38.6808L33.5134 41.8778C33.4505 42.2442 33.6012 42.6145 33.902 42.8329C34.2028 43.0516 34.6014 43.0801 34.9304 42.9073L37.8016 41.3979L40.6728 42.9073C40.8157 42.9824 40.9717 43.0194 41.1271 43.0194C41.3295 43.0194 41.5311 42.9564 41.7012 42.8329C42.0019 42.6145 42.1526 42.2442 42.0898 41.8778L41.5415 38.6808L43.8643 36.4165C44.1305 36.157 44.2262 35.7689 44.1114 35.4154C43.9964 35.0619 43.6909 34.8042 43.323 34.7507L40.1129 34.2844L38.6774 31.3754C38.5128 31.0421 38.1734 30.8311 37.8016 30.8311C37.4298 30.8311 37.0904 31.0421 36.9258 31.3754L35.4903 34.2844L32.2802 34.7507C31.9123 34.8042 31.6068 35.0619 31.4918 35.4154C31.377 35.7689 31.4728 36.157 31.7389 36.4165L34.0618 38.6808ZM36.2791 36.1434C36.5973 36.0971 36.8722 35.8973 37.0145 35.6091L37.8016 34.0142L38.5887 35.6091C38.731 35.8973 39.0059 36.0971 39.3241 36.1434L41.084 36.399L39.8104 37.6404C39.5803 37.8648 39.4752 38.188 39.5295 38.5049L39.8302 40.2577L38.256 39.4301C38.1137 39.3553 37.9577 39.318 37.8016 39.318C37.6456 39.318 37.4895 39.3554 37.3472 39.4301L35.773 40.2577L36.0737 38.5049C36.128 38.1881 36.0229 37.8648 35.7928 37.6404L34.5192 36.399L36.2791 36.1434Z" fill="white"/>
<path d="M52.8047 25.8358C53.344 25.8358 53.7813 25.3985 53.7813 24.8593V21.9766C53.7813 21.4373 53.344 21 52.8047 21C52.2655 21 51.8282 21.4373 51.8282 21.9766V24.8593C51.8282 25.3985 52.2655 25.8358 52.8047 25.8358Z" fill="white"/>
<path d="M45.6011 27.9406C45.7918 28.1312 46.0417 28.2266 46.2916 28.2266C46.5415 28.2266 46.7914 28.1312 46.9821 27.9406C47.3635 27.5593 47.3635 26.9409 46.9821 26.5594L45.2905 24.8678C44.9091 24.4866 44.2909 24.4866 43.9094 24.8678C43.528 25.2492 43.528 25.8676 43.9094 26.249L45.6011 27.9406Z" fill="white"/>
<path d="M59.3385 28.2266C59.5884 28.2266 59.8383 28.1312 60.029 27.9406L61.7207 26.249C62.1021 25.8676 62.1021 25.2494 61.7207 24.8678C61.3394 24.4867 60.7212 24.4866 60.3396 24.8678L58.6479 26.5595C58.2665 26.9409 58.2665 27.5591 58.6479 27.9407C58.8387 28.1312 59.0885 28.2266 59.3385 28.2266Z" fill="white"/>
<path d="M29.4819 60.9481C29.6635 60.7666 29.768 60.5146 29.768 60.2578C29.768 60.001 29.6636 59.749 29.4819 59.5674C29.2993 59.3857 29.0483 59.2812 28.7914 59.2812C28.5346 59.2812 28.2827 59.3856 28.1 59.5674C27.9185 59.749 27.8149 60.001 27.8149 60.2578C27.8149 60.5146 27.9185 60.7666 28.1 60.9481C28.2827 61.1298 28.5336 61.2344 28.7914 61.2344C29.0483 61.2344 29.3002 61.1299 29.4819 60.9481Z" fill="white"/>
</svg>
