<svg width="100" height="90" viewBox="0 0 100 90" fill="none" xmlns="http://www.w3.org/2000/svg">
<rect width="99.6774" height="90" rx="15" fill="#79E28A"/>
<g clip-path="url(#clip0_2_70)">
<path d="M49.0345 13.9717C42.3367 20.6818 38.5902 30.0717 38.7548 39.7365L38.7548 43.1145L35.1634 43.1145L31.3589 49.9114L31.3588 58.359L38.7545 58.3591L38.7545 58.3592L39.1369 58.3592L40.9859 63.687L43.2789 63.687L43.279 69.2957L45.9285 69.2957L45.9285 63.6871L48.6411 63.6872L48.641 75.5646L51.2905 75.5646L51.2905 63.6871L54.003 63.6871V69.296L56.6525 69.296L56.6525 63.6871L58.9456 63.6872L60.7947 58.3592L68.5728 58.3592L68.573 49.9125L64.778 43.1148L61.1771 43.1149L61.1771 39.737C61.2617 35.1367 60.4191 30.4113 58.7401 26.0708C55.5518 17.8282 50.5149 13.6875 49.9721 13.0324L49.0345 13.9717ZM34.0083 50.6025L36.7167 45.7642L38.7546 45.7641L38.7545 55.7097L34.0083 55.7095L34.0083 50.6025ZM57.0606 61.0377L42.8709 61.0375L41.9416 58.3593L57.9902 58.3592L57.0606 61.0377ZM63.2228 45.7645L65.9235 50.602L65.9234 55.7099L61.1772 55.7099V45.7647L63.2228 45.7645ZM58.5278 39.6999L58.5278 43.1151L58.5275 43.1151L58.5275 55.7095L41.4042 55.7096C41.4042 54.4472 41.4043 44.3328 41.4043 43.1145C41.4043 42.7203 41.4044 44.454 41.4041 39.7018C41.257 31.2094 44.3658 22.9495 49.9722 16.8244C55.5829 22.9534 58.6871 31.2124 58.5278 39.6999Z" fill="white"/>
<path d="M56.0069 37.106C56.0069 33.7724 53.2975 31.0603 49.9673 31.0603C48.3567 31.0603 46.8411 31.6888 45.6999 32.8301C43.3439 35.186 43.3272 38.9998 45.698 41.3695C46.8401 42.511 48.3563 43.1396 49.9674 43.1396C53.2658 43.1394 56.007 40.4543 56.0069 37.106ZM47.5734 34.7036C48.2142 34.0628 49.0644 33.7098 49.9673 33.7098C51.8366 33.7099 53.3574 35.2334 53.3574 37.106C53.3574 38.0029 53.0041 38.85 52.3626 39.4915C51.022 40.832 48.8904 40.8141 47.571 39.4954C46.9301 38.8549 46.2612 36.0158 47.5734 34.7036Z" fill="white"/>
</g>
<defs>
<clipPath id="clip0_2_70">
<rect width="45.2123" height="45.2123" fill="white" transform="translate(17.9995 45) rotate(-45)"/>
</clipPath>
</defs>
</svg>
